<svg xmlns="http://www.w3.org/2000/svg" version="1.1" xmlns:xlink="http://www.w3.org/1999/xlink" xmlns:svgjs="http://svgjs.dev/svgjs" width="1440" height="560" preserveAspectRatio="none" viewBox="0 0 1440 560"><g mask="url(&quot;#SvgjsMask1065&quot;)" fill="none"><rect width="1440" height="560" x="0" y="0" fill="rgba(196, 229, 249, 1)"></rect><path d="M0,605.406C111.564,600.415,192.211,505.444,288.742,449.291C390.659,390.004,523.505,368.04,583.02,266.256C643.699,162.481,609.281,33.432,602.062,-86.564C594.183,-217.521,616.893,-361.467,538.907,-466.966C459.583,-574.274,319.896,-617.203,189.352,-644.874C65.479,-671.131,-68.25,-675.441,-181.981,-619.771C-288.704,-567.531,-340.673,-451.298,-407.218,-352.857C-465.905,-266.039,-515.17,-178.363,-547.704,-78.748C-586.283,39.378,-663.717,166.518,-614.044,280.424C-564.41,394.242,-415.582,417.805,-305.835,475.889C-205.962,528.747,-112.885,610.456,0,605.406" fill="#94d0f4"></path><path d="M1440 1132.708C1545.263 1136.85 1618.427 1031.184 1699.877 964.377 1772.1109999999999 905.129 1844.193 847.072 1888.511 764.828 1934.9569999999999 678.634 1967.563 582.97 1957.904 485.53700000000003 1948.022 385.85900000000004 1897.005 296.448 1834.3310000000001 218.31099999999998 1769.839 137.90800000000002 1691.309 69.00200000000001 1594.789 32.837999999999965 1493.767-5.013000000000034 1382.42-18.986999999999966 1278.524 10.062000000000012 1173.946 39.301000000000045 1082.045 106.61599999999999 1017.799 194.161 956.29 277.977 927.299 382.56 928.876 486.512 930.321 581.739 978.64 666.465 1026.217 748.968 1069.882 824.687 1128.853 884.9929999999999 1192.942 944.429 1270.43 1016.2909999999999 1334.401 1128.5529999999999 1440 1132.708" fill="#f5fafe"></path></g><defs><mask id="SvgjsMask1065"><rect width="1440" height="560" fill="#ffffff"></rect></mask></defs></svg>