<svg xmlns="http://www.w3.org/2000/svg" version="1.1" xmlns:xlink="http://www.w3.org/1999/xlink" xmlns:svgjs="http://svgjs.dev/svgjs" width="1440" height="560" preserveAspectRatio="none" viewBox="0 0 1440 560"><g mask="url(&quot;#SvgjsMask2733&quot;)" fill="none"><rect width="1440" height="560" x="0" y="0" fill="rgba(196, 229, 249, 1)"></rect><path d="M1008.86 241.89a5.6 5.6 0 1 0-3.19-10.74 5.6 5.6 0 1 0 3.19 10.74zM1004.31 226.55a5.6 5.6 0 1 0-3.19-10.74 5.6 5.6 0 1 0 3.19 10.74zM999.75 211.21a5.6 5.6 0 1 0-3.18-10.74 5.6 5.6 0 1 0 3.18 10.74zM995.2 195.87a5.6 5.6 0 1 0-3.19-10.73 5.6 5.6 0 1 0 3.19 10.73zM1033.31 268.01a5.6 5.6 0 1 0-3.19-10.74 5.6 5.6 0 1 0 3.19 10.74zM1028.76 252.67a5.6 5.6 0 1 0-3.19-10.74 5.6 5.6 0 1 0 3.19 10.74zM1024.2 237.33a5.6 5.6 0 1 0-3.19-10.74 5.6 5.6 0 1 0 3.19 10.74zM1019.65 221.99a5.6 5.6 0 1 0-3.19-10.73 5.6 5.6 0 1 0 3.19 10.73z" stroke="rgba(255, 255, 255, 1)" stroke-width="2.03" stroke-dasharray="4, 4"></path><rect width="216" height="216" clip-path="url(&quot;#SvgjsClipPath2734&quot;)" x="547.98" y="-13.02" fill="url(&quot;#SvgjsPattern2735&quot;)" transform="rotate(318.51, 655.98, 94.98)"></rect><rect width="60" height="60" clip-path="url(&quot;#SvgjsClipPath2736&quot;)" x="535.19" y="180.89" fill="url(&quot;#SvgjsPattern2737&quot;)" transform="rotate(97.8, 565.19, 210.89)"></rect><path d="M606.68 228.45a5.6 5.6 0 1 0-8.93 6.77 5.6 5.6 0 1 0 8.93-6.77zM593.93 238.12a5.6 5.6 0 1 0-8.93 6.76 5.6 5.6 0 1 0 8.93-6.76zM581.18 247.78a5.6 5.6 0 1 0-8.93 6.77 5.6 5.6 0 1 0 8.93-6.77zM568.43 257.45a5.6 5.6 0 1 0-8.93 6.77 5.6 5.6 0 1 0 8.93-6.77z" stroke="rgba(76, 168, 212, 1)" stroke-width="2.21"></path><rect width="288" height="288" clip-path="url(&quot;#SvgjsClipPath2738&quot;)" x="806.19" y="161.08" fill="url(&quot;#SvgjsPattern2739&quot;)" transform="rotate(350.33, 950.19, 305.08)"></rect><path d="M858.66 210.37 L799.16 270.68L783.2821845932757 194.89718459327577z" stroke="rgba(252, 163, 175, 1)" stroke-width="1.28" stroke-dasharray="3, 2"></path><path d="M185.44 158.13a5.6 5.6 0 1 0-1.95-11.03 5.6 5.6 0 1 0 1.95 11.03zM182.66 142.37a5.6 5.6 0 1 0-1.95-11.03 5.6 5.6 0 1 0 1.95 11.03zM179.87 126.62a5.6 5.6 0 1 0-1.95-11.03 5.6 5.6 0 1 0 1.95 11.03zM177.08 110.86a5.6 5.6 0 1 0-1.95-11.03 5.6 5.6 0 1 0 1.95 11.03z" fill="rgba(255, 255, 255, 1)"></path><path d="M520.17 304.23L507.85 300.75 508.53 287.96 496.2 284.49 496.89 271.7 484.56 268.23 485.25 255.44M526.68 299.57L514.35 296.1 515.04 283.31 502.71 279.83 503.39 267.05 491.07 263.57 491.75 250.78" stroke="rgba(255, 255, 255, 1)" stroke-width="1"></path><rect width="373.8" height="373.8" clip-path="url(&quot;#SvgjsClipPath2740&quot;)" x="1023.39" y="199.5" fill="url(&quot;#SvgjsPattern2741&quot;)" transform="rotate(66.91, 1210.29, 386.4)"></rect><path d="M69.15 99.45L78.31 108.4 71.59 119.3 80.76 128.25 74.04 139.15 83.21 148.1 76.49 159" stroke="rgba(252, 163, 175, 1)" stroke-width="1" stroke-dasharray="3, 3"></path><rect width="60" height="60" clip-path="url(&quot;#SvgjsClipPath2742&quot;)" x="947.52" y="426.68" fill="url(&quot;#SvgjsPattern2743&quot;)" transform="rotate(287.95, 977.52, 456.68)"></rect><path d="M645.23 528.09L644.68 540.89 632.08 543.16 631.53 555.95 618.93 558.22 618.38 571.02 605.77 573.29" stroke="rgba(252, 163, 175, 1)" stroke-width="1"></path></g><defs><mask id="SvgjsMask2733"><rect width="1440" height="560" fill="#ffffff"></rect></mask><pattern x="0" y="0" width="6" height="6" patternUnits="userSpaceOnUse" id="SvgjsPattern2735"><path d="M3 1L3 5M1 3L5 3" stroke="rgba(252, 163, 175, 1)" fill="none" stroke-width="1.23"></path></pattern><clipPath id="SvgjsClipPath2734"><circle r="54" cx="655.98" cy="94.98"></circle></clipPath><pattern x="0" y="0" width="60" height="6" patternUnits="userSpaceOnUse" id="SvgjsPattern2737"><rect width="60" height="3" x="0" y="0" fill="rgba(252, 163, 175, 1)"></rect><rect width="60" height="3" x="0" y="3" fill="rgba(0, 0, 0, 0)"></rect></pattern><clipPath id="SvgjsClipPath2736"><circle r="15" cx="565.19" cy="210.89"></circle></clipPath><pattern x="0" y="0" width="6" height="6" patternUnits="userSpaceOnUse" id="SvgjsPattern2739"><path d="M0 6L3 0L6 6" stroke="rgba(255, 255, 255, 1)" fill="none"></path></pattern><clipPath id="SvgjsClipPath2738"><circle r="72" cx="950.19" cy="305.08"></circle></clipPath><pattern x="0" y="0" width="12.46" height="12.46" patternUnits="userSpaceOnUse" id="SvgjsPattern2741"><path d="M6.23 1L6.23 11.46M1 6.23L11.46 6.23" stroke="rgba(76, 168, 212, 1)" fill="none" stroke-width="5.23"></path></pattern><clipPath id="SvgjsClipPath2740"><circle r="93.45" cx="1210.29" cy="386.4"></circle></clipPath><pattern x="0" y="0" width="60" height="6" patternUnits="userSpaceOnUse" id="SvgjsPattern2743"><rect width="60" height="3" x="0" y="0" fill="rgba(252, 163, 175, 1)"></rect><rect width="60" height="3" x="0" y="3" fill="rgba(0, 0, 0, 0)"></rect></pattern><clipPath id="SvgjsClipPath2742"><circle r="15" cx="977.52" cy="456.68"></circle></clipPath></defs></svg>