<?xml version="1.0" encoding="UTF-8"?>
<svg xmlns="http://www.w3.org/2000/svg" xmlns:xlink="http://www.w3.org/1999/xlink" width="16px" height="16px" viewBox="0 0 16 16" version="1.1">
<g id="surface4">
<path style=" stroke:none;fill-rule:nonzero;fill:rgb(29.803923%,65.882355%,83.137256%);fill-opacity:1;" d="M 6.996094 7 C 6.644531 7 6.359375 7.285156 6.359375 7.636719 C 6.359375 7.769531 6.402344 7.890625 6.472656 7.992188 C 6.585938 7.824219 6.777344 7.714844 6.996094 7.714844 C 7.214844 7.714844 7.40625 7.824219 7.519531 7.992188 C 7.589844 7.890625 7.628906 7.769531 7.628906 7.636719 C 7.628906 7.285156 7.347656 7 6.996094 7 Z M 7.222656 7.53125 C 7.15625 7.53125 7.101562 7.476562 7.101562 7.410156 C 7.101562 7.339844 7.15625 7.285156 7.222656 7.285156 C 7.292969 7.285156 7.347656 7.339844 7.347656 7.410156 C 7.347656 7.476562 7.292969 7.53125 7.222656 7.53125 Z M 7.222656 7.53125 "/>
<path style=" stroke:none;fill-rule:nonzero;fill:rgb(29.803923%,65.882355%,83.137256%);fill-opacity:1;" d="M 9.039062 7 C 8.6875 7 8.40625 7.285156 8.40625 7.636719 C 8.40625 7.769531 8.445312 7.890625 8.515625 7.992188 C 8.628906 7.824219 8.820312 7.714844 9.039062 7.714844 C 9.257812 7.714844 9.449219 7.824219 9.5625 7.992188 C 9.632812 7.890625 9.671875 7.769531 9.671875 7.636719 C 9.671875 7.285156 9.390625 7 9.039062 7 Z M 9.265625 7.53125 C 9.199219 7.53125 9.144531 7.476562 9.144531 7.410156 C 9.144531 7.339844 9.199219 7.285156 9.265625 7.285156 C 9.335938 7.285156 9.390625 7.339844 9.390625 7.410156 C 9.390625 7.476562 9.335938 7.53125 9.265625 7.53125 Z M 9.265625 7.53125 "/>
<path style=" stroke:none;fill-rule:nonzero;fill:rgb(98.823529%,63.921571%,68.627453%);fill-opacity:1;" d="M 6.945312 8.792969 C 6.945312 8.550781 6.75 8.355469 6.507812 8.355469 C 6.265625 8.355469 6.070312 8.550781 6.070312 8.792969 C 6.070312 9.035156 6.265625 9.230469 6.507812 9.230469 C 6.75 9.230469 6.945312 9.035156 6.945312 8.792969 Z M 6.945312 8.792969 "/>
<path style=" stroke:none;fill-rule:nonzero;fill:rgb(98.823529%,63.921571%,68.627453%);fill-opacity:1;" d="M 9.9375 8.792969 C 9.9375 8.550781 9.742188 8.355469 9.5 8.355469 C 9.257812 8.355469 9.0625 8.550781 9.0625 8.792969 C 9.0625 9.035156 9.257812 9.230469 9.5 9.230469 C 9.742188 9.230469 9.9375 9.035156 9.9375 8.792969 Z M 9.9375 8.792969 "/>
<path style=" stroke:none;fill-rule:nonzero;fill:rgb(98.823529%,63.921571%,68.627453%);fill-opacity:1;" d="M 6.378906 3.808594 C 6.28125 3.582031 5.976562 3.542969 5.808594 3.722656 C 5.777344 3.460938 5.527344 3.351562 5.355469 3.402344 C 5 3.515625 5.167969 3.921875 5.167969 3.921875 C 4.980469 3.910156 4.792969 3.960938 4.773438 4.210938 C 4.71875 4.703125 5.210938 4.546875 5.210938 4.546875 C 5.210938 4.546875 5.019531 4.84375 5.273438 5.015625 C 5.527344 5.1875 5.726562 5.082031 5.796875 4.824219 C 5.964844 5 6.171875 4.972656 6.277344 4.847656 C 6.46875 4.671875 6.410156 4.417969 6.152344 4.269531 C 6.394531 4.199219 6.464844 4.003906 6.378906 3.808594 Z M 5.714844 4.523438 C 5.570312 4.570312 5.414062 4.488281 5.371094 4.34375 C 5.324219 4.199219 5.40625 4.046875 5.550781 4 C 5.695312 3.957031 5.847656 4.039062 5.894531 4.183594 C 5.9375 4.328125 5.859375 4.480469 5.714844 4.523438 Z M 5.714844 4.523438 "/>
<path style=" stroke:none;fill-rule:nonzero;fill:rgb(29.803923%,65.882355%,83.137256%);fill-opacity:1;" d="M 9.605469 3.863281 C 9.605469 3.847656 9.605469 3.832031 9.605469 3.816406 C 9.605469 2.9375 8.894531 2.226562 8.015625 2.226562 C 7.195312 2.226562 6.519531 2.847656 6.433594 3.644531 C 6.460938 3.675781 6.484375 3.714844 6.503906 3.753906 C 6.5625 3.890625 6.5625 4.03125 6.507812 4.148438 C 6.488281 4.195312 6.453125 4.246094 6.394531 4.292969 C 6.464844 4.375 6.511719 4.46875 6.519531 4.566406 C 6.535156 4.703125 6.484375 4.835938 6.375 4.941406 C 6.292969 5.03125 6.179688 5.082031 6.058594 5.082031 C 5.988281 5.082031 5.917969 5.066406 5.851562 5.03125 C 5.773438 5.160156 5.652344 5.234375 5.507812 5.234375 C 5.410156 5.234375 5.304688 5.199219 5.199219 5.125 C 5.078125 5.046875 5.023438 4.9375 5.011719 4.832031 C 4.40625 5.492188 4.039062 6.355469 4.039062 7.300781 C 4.039062 9.378906 5.8125 11.0625 8 11.0625 C 10.1875 11.0625 11.960938 9.378906 11.960938 7.300781 C 11.960938 5.765625 10.992188 4.445312 9.605469 3.863281 Z M 6.742188 3.476562 C 6.761719 3.46875 7.21875 3.289062 8.019531 3.289062 C 8.820312 3.289062 9.242188 3.472656 9.261719 3.480469 C 9.335938 3.511719 9.371094 3.601562 9.339844 3.679688 C 9.3125 3.738281 9.257812 3.769531 9.199219 3.769531 C 9.179688 3.769531 9.15625 3.765625 9.136719 3.757812 C 9.136719 3.757812 8.75 3.597656 8.019531 3.597656 C 7.289062 3.597656 6.859375 3.757812 6.855469 3.761719 C 6.777344 3.792969 6.691406 3.753906 6.660156 3.675781 C 6.628906 3.597656 6.664062 3.507812 6.742188 3.476562 Z M 7.835938 10.691406 C 6.222656 10.691406 5.546875 9.4375 5.546875 8.796875 C 5.546875 8.15625 5.734375 7.414062 6.058594 7.042969 C 6.382812 6.667969 7.210938 5.832031 7.558594 5.15625 C 7.75 4.789062 7.863281 4.457031 7.929688 4.230469 C 7.953125 4.148438 8.054688 4.144531 8.085938 4.226562 C 8.316406 4.875 8.871094 5.992188 9.199219 6.296875 C 9.582031 6.65625 10.453125 7.273438 10.453125 8.609375 C 10.453125 9.949219 9.453125 10.691406 7.835938 10.691406 Z M 7.835938 10.691406 "/>
<path style=" stroke:none;fill-rule:nonzero;fill:rgb(98.823529%,63.921571%,68.627453%);fill-opacity:1;" d="M 6.378906 3.808594 C 6.28125 3.582031 5.976562 3.542969 5.808594 3.722656 C 5.777344 3.460938 5.527344 3.351562 5.355469 3.402344 C 5 3.515625 5.167969 3.921875 5.167969 3.921875 C 4.980469 3.910156 4.792969 3.960938 4.773438 4.210938 C 4.71875 4.703125 5.210938 4.546875 5.210938 4.546875 C 5.210938 4.546875 5.019531 4.84375 5.273438 5.015625 C 5.527344 5.1875 5.726562 5.082031 5.796875 4.824219 C 5.964844 5 6.171875 4.972656 6.277344 4.847656 C 6.46875 4.671875 6.410156 4.417969 6.152344 4.269531 C 6.394531 4.199219 6.464844 4.003906 6.378906 3.808594 Z M 5.714844 4.523438 C 5.570312 4.570312 5.414062 4.488281 5.371094 4.34375 C 5.324219 4.199219 5.40625 4.046875 5.550781 4 C 5.695312 3.957031 5.847656 4.039062 5.894531 4.183594 C 5.9375 4.328125 5.859375 4.480469 5.714844 4.523438 Z M 5.714844 4.523438 "/>
<path style=" stroke:none;fill-rule:nonzero;fill:rgb(100%,100%,100%);fill-opacity:1;" d="M 5.90625 4.261719 C 5.90625 4.113281 5.785156 3.988281 5.632812 3.988281 C 5.480469 3.988281 5.359375 4.113281 5.359375 4.261719 C 5.359375 4.414062 5.480469 4.535156 5.632812 4.535156 C 5.785156 4.535156 5.90625 4.414062 5.90625 4.261719 Z M 5.90625 4.261719 "/>
<path style=" stroke:none;fill-rule:nonzero;fill:rgb(30.19608%,65.882355%,83.529413%);fill-opacity:1;" d="M 3.195312 12.707031 C 3.414062 12.707031 3.542969 12.476562 3.542969 12.230469 C 3.542969 11.96875 3.363281 11.757812 3.140625 11.757812 L 2.460938 11.757812 C 2.4375 11.757812 2.414062 11.78125 2.414062 11.8125 L 2.414062 13.71875 C 2.414062 13.75 2.4375 13.773438 2.460938 13.773438 L 3.195312 13.773438 C 3.433594 13.773438 3.628906 13.535156 3.628906 13.242188 C 3.628906 12.945312 3.464844 12.707031 3.195312 12.707031 Z M 2.707031 12.105469 C 2.707031 12.074219 2.730469 12.046875 2.753906 12.046875 L 3.027344 12.046875 C 3.148438 12.046875 3.25 12.164062 3.25 12.3125 C 3.25 12.457031 3.148438 12.574219 3.027344 12.574219 L 2.753906 12.574219 C 2.730469 12.574219 2.707031 12.546875 2.707031 12.519531 Z M 3.320312 13.195312 C 3.320312 13.359375 3.207031 13.492188 3.066406 13.492188 L 2.753906 13.492188 C 2.730469 13.492188 2.707031 13.464844 2.707031 13.433594 L 2.707031 12.953125 C 2.707031 12.921875 2.730469 12.898438 2.753906 12.898438 L 3.066406 12.898438 C 3.207031 12.898438 3.320312 13.03125 3.320312 13.195312 Z M 3.320312 13.195312 "/>
<path style=" stroke:none;fill-rule:nonzero;fill:rgb(30.19608%,65.882355%,83.529413%);fill-opacity:1;" d="M 4.734375 12.707031 C 4.949219 12.707031 5.082031 12.476562 5.082031 12.230469 C 5.082031 11.96875 4.902344 11.757812 4.679688 11.757812 L 4 11.757812 C 3.972656 11.757812 3.953125 11.78125 3.953125 11.8125 L 3.953125 13.71875 C 3.953125 13.75 3.972656 13.773438 4 13.773438 L 4.734375 13.773438 C 4.972656 13.773438 5.167969 13.535156 5.167969 13.242188 C 5.167969 12.945312 5.003906 12.707031 4.734375 12.707031 Z M 4.246094 12.105469 C 4.246094 12.074219 4.265625 12.046875 4.292969 12.046875 L 4.5625 12.046875 C 4.6875 12.046875 4.785156 12.164062 4.785156 12.3125 C 4.785156 12.457031 4.6875 12.574219 4.5625 12.574219 L 4.292969 12.574219 C 4.265625 12.574219 4.246094 12.546875 4.246094 12.519531 Z M 4.855469 13.195312 C 4.855469 13.359375 4.742188 13.492188 4.605469 13.492188 L 4.292969 13.492188 C 4.265625 13.492188 4.246094 13.464844 4.246094 13.433594 L 4.246094 12.953125 C 4.246094 12.921875 4.265625 12.898438 4.292969 12.898438 L 4.605469 12.898438 C 4.742188 12.898438 4.855469 13.03125 4.855469 13.195312 Z M 4.855469 13.195312 "/>
<path style=" stroke:none;fill-rule:nonzero;fill:rgb(30.19608%,65.882355%,83.529413%);fill-opacity:1;" d="M 7.570312 11.722656 C 7.554688 11.722656 7.539062 11.730469 7.53125 11.75 L 7.023438 12.859375 C 7.019531 12.871094 7.007812 12.871094 7.003906 12.859375 L 6.496094 11.75 C 6.488281 11.730469 6.472656 11.722656 6.457031 11.722656 L 6.226562 11.722656 C 6.199219 11.722656 6.179688 11.746094 6.179688 11.773438 L 6.179688 13.71875 C 6.179688 13.75 6.199219 13.773438 6.226562 13.773438 L 6.402344 13.773438 C 6.425781 13.773438 6.445312 13.75 6.445312 13.71875 L 6.445312 12.371094 C 6.445312 12.359375 6.460938 12.355469 6.46875 12.367188 L 6.855469 13.195312 C 6.886719 13.265625 6.945312 13.304688 7.011719 13.304688 C 7.078125 13.304688 7.140625 13.261719 7.171875 13.195312 L 7.558594 12.367188 C 7.566406 12.355469 7.582031 12.359375 7.582031 12.371094 L 7.582031 13.71875 C 7.582031 13.75 7.601562 13.773438 7.625 13.773438 L 7.800781 13.773438 C 7.828125 13.773438 7.847656 13.75 7.847656 13.71875 L 7.847656 11.773438 C 7.847656 11.746094 7.828125 11.722656 7.800781 11.722656 Z M 7.570312 11.722656 "/>
<path style=" stroke:none;fill-rule:nonzero;fill:rgb(30.19608%,65.882355%,83.529413%);fill-opacity:1;" d="M 9.441406 13.773438 L 9.65625 13.773438 C 9.683594 13.773438 9.707031 13.738281 9.695312 13.703125 L 9.109375 11.769531 C 9.105469 11.746094 9.089844 11.734375 9.070312 11.734375 L 8.820312 11.734375 C 8.800781 11.734375 8.785156 11.746094 8.777344 11.769531 L 8.195312 13.703125 C 8.183594 13.738281 8.203125 13.773438 8.234375 13.773438 L 8.449219 13.773438 C 8.464844 13.773438 8.484375 13.761719 8.488281 13.738281 L 8.613281 13.324219 C 8.613281 13.316406 8.621094 13.3125 8.625 13.3125 L 9.265625 13.3125 C 9.269531 13.3125 9.277344 13.316406 9.277344 13.324219 L 9.402344 13.738281 C 9.40625 13.761719 9.425781 13.773438 9.445312 13.773438 Z M 8.714844 12.980469 L 8.933594 12.246094 C 8.9375 12.234375 8.953125 12.234375 8.957031 12.246094 L 9.175781 12.980469 C 9.179688 12.988281 9.171875 13 9.164062 13 L 8.726562 13 C 8.71875 13 8.710938 12.988281 8.714844 12.980469 Z M 8.714844 12.980469 "/>
<path style=" stroke:none;fill-rule:nonzero;fill:rgb(30.19608%,65.882355%,83.529413%);fill-opacity:1;" d="M 10.070312 11.734375 L 10.253906 11.734375 C 10.285156 11.734375 10.3125 11.757812 10.3125 11.789062 L 10.3125 13.71875 C 10.3125 13.75 10.285156 13.773438 10.253906 13.773438 L 10.070312 13.773438 C 10.039062 13.773438 10.015625 13.75 10.015625 13.71875 L 10.015625 11.789062 C 10.015625 11.757812 10.039062 11.734375 10.070312 11.734375 Z M 10.070312 11.734375 "/>
<path style=" stroke:none;fill-rule:nonzero;fill:rgb(30.19608%,65.882355%,83.529413%);fill-opacity:1;" d="M 11.328125 11.734375 L 10.8125 11.734375 C 10.777344 11.734375 10.753906 11.765625 10.753906 11.804688 L 10.753906 13.703125 C 10.753906 13.742188 10.777344 13.773438 10.8125 13.773438 L 11.328125 13.773438 C 11.808594 13.773438 12.195312 13.316406 12.195312 12.753906 C 12.195312 12.191406 11.808594 11.734375 11.328125 11.734375 Z M 11.90625 12.777344 C 11.90625 13.109375 11.667969 13.488281 11.402344 13.488281 L 11.121094 13.488281 C 11.078125 13.488281 11.042969 13.445312 11.042969 13.394531 L 11.042969 12.140625 C 11.042969 12.089844 11.078125 12.050781 11.121094 12.050781 L 11.402344 12.050781 C 11.679688 12.050781 11.902344 12.425781 11.902344 12.757812 Z M 11.90625 12.777344 "/>
<path style=" stroke:none;fill-rule:nonzero;fill:rgb(29.803923%,65.882355%,83.137256%);fill-opacity:1;" d="M 13.253906 12.632812 C 13.105469 12.554688 12.710938 12.457031 12.816406 12.179688 C 12.882812 12 13.09375 12.023438 13.226562 12.066406 C 13.34375 12.105469 13.414062 12.203125 13.484375 12.015625 C 13.515625 11.933594 13.53125 11.855469 13.457031 11.804688 C 13.324219 11.71875 13.074219 11.6875 12.925781 11.710938 C 12.433594 11.78125 12.328125 12.53125 12.777344 12.785156 C 12.960938 12.886719 13.355469 12.949219 13.25 13.292969 C 13.199219 13.453125 13.023438 13.460938 12.898438 13.4375 C 12.792969 13.417969 12.660156 13.277344 12.5625 13.308594 C 12.511719 13.324219 12.449219 13.488281 12.457031 13.546875 C 12.472656 13.625 12.703125 13.722656 12.765625 13.742188 C 13.078125 13.828125 13.464844 13.757812 13.5625 13.339844 C 13.640625 13 13.507812 12.773438 13.253906 12.632812 Z M 13.253906 12.632812 "/>
</g>
</svg>
