<?xml version="1.0" encoding="UTF-8"?>
<svg xmlns="http://www.w3.org/2000/svg" xmlns:xlink="http://www.w3.org/1999/xlink" width="32px" height="32px" viewBox="0 0 32 32" version="1.1">
<g id="surface4">
<path style=" stroke:none;fill-rule:nonzero;fill:rgb(29.803923%,65.882355%,83.137256%);fill-opacity:1;" d="M 13.992188 14.003906 C 13.289062 14.003906 12.722656 14.570312 12.722656 15.269531 C 12.722656 15.535156 12.804688 15.78125 12.941406 15.984375 C 13.171875 15.648438 13.554688 15.429688 13.992188 15.429688 C 14.425781 15.429688 14.8125 15.648438 15.039062 15.984375 C 15.179688 15.78125 15.257812 15.535156 15.257812 15.269531 C 15.257812 14.570312 14.691406 14.003906 13.992188 14.003906 Z M 14.445312 15.0625 C 14.308594 15.0625 14.199219 14.953125 14.199219 14.816406 C 14.199219 14.679688 14.308594 14.570312 14.445312 14.570312 C 14.582031 14.570312 14.691406 14.679688 14.691406 14.816406 C 14.691406 14.953125 14.582031 15.0625 14.445312 15.0625 Z M 14.445312 15.0625 "/>
<path style=" stroke:none;fill-rule:nonzero;fill:rgb(29.803923%,65.882355%,83.137256%);fill-opacity:1;" d="M 18.078125 14.003906 C 17.378906 14.003906 16.8125 14.570312 16.8125 15.269531 C 16.8125 15.535156 16.890625 15.78125 17.03125 15.984375 C 17.257812 15.648438 17.644531 15.429688 18.078125 15.429688 C 18.515625 15.429688 18.898438 15.648438 19.128906 15.984375 C 19.265625 15.78125 19.347656 15.535156 19.347656 15.269531 C 19.347656 14.570312 18.78125 14.003906 18.078125 14.003906 Z M 18.535156 15.0625 C 18.398438 15.0625 18.289062 14.953125 18.289062 14.816406 C 18.289062 14.679688 18.398438 14.570312 18.535156 14.570312 C 18.671875 14.570312 18.78125 14.679688 18.78125 14.816406 C 18.78125 14.953125 18.671875 15.0625 18.535156 15.0625 Z M 18.535156 15.0625 "/>
<path style=" stroke:none;fill-rule:nonzero;fill:rgb(98.823529%,63.921571%,68.627453%);fill-opacity:1;" d="M 13.890625 17.585938 C 13.890625 17.101562 13.5 16.710938 13.015625 16.710938 C 12.53125 16.710938 12.140625 17.101562 12.140625 17.585938 C 12.140625 18.070312 12.53125 18.460938 13.015625 18.460938 C 13.5 18.460938 13.890625 18.070312 13.890625 17.585938 Z M 13.890625 17.585938 "/>
<path style=" stroke:none;fill-rule:nonzero;fill:rgb(98.823529%,63.921571%,68.627453%);fill-opacity:1;" d="M 19.878906 17.585938 C 19.878906 17.101562 19.484375 16.710938 19 16.710938 C 18.519531 16.710938 18.125 17.101562 18.125 17.585938 C 18.125 18.070312 18.519531 18.460938 19 18.460938 C 19.484375 18.460938 19.878906 18.070312 19.878906 17.585938 Z M 19.878906 17.585938 "/>
<path style=" stroke:none;fill-rule:nonzero;fill:rgb(98.823529%,63.921571%,68.627453%);fill-opacity:1;" d="M 12.757812 7.617188 C 12.5625 7.164062 11.953125 7.089844 11.621094 7.445312 C 11.554688 6.921875 11.054688 6.703125 10.710938 6.808594 C 10.003906 7.03125 10.339844 7.84375 10.339844 7.84375 C 9.957031 7.824219 9.585938 7.925781 9.546875 8.421875 C 9.433594 9.402344 10.421875 9.097656 10.421875 9.097656 C 10.421875 9.097656 10.035156 9.6875 10.546875 10.03125 C 11.054688 10.371094 11.453125 10.167969 11.597656 9.648438 C 11.929688 10.003906 12.34375 9.945312 12.558594 9.695312 C 12.933594 9.34375 12.816406 8.835938 12.308594 8.539062 C 12.792969 8.398438 12.925781 8.007812 12.757812 7.617188 Z M 11.425781 9.050781 C 11.136719 9.140625 10.832031 8.976562 10.742188 8.6875 C 10.652344 8.398438 10.8125 8.09375 11.101562 8.003906 C 11.390625 7.914062 11.699219 8.074219 11.789062 8.363281 C 11.878906 8.652344 11.714844 8.960938 11.425781 9.050781 Z M 11.425781 9.050781 "/>
<path style=" stroke:none;fill-rule:nonzero;fill:rgb(29.803923%,65.882355%,83.137256%);fill-opacity:1;" d="M 19.210938 7.722656 C 19.210938 7.695312 19.214844 7.664062 19.214844 7.632812 C 19.214844 5.875 17.789062 4.453125 16.03125 4.453125 C 14.390625 4.453125 13.039062 5.695312 12.871094 7.289062 C 12.925781 7.355469 12.96875 7.429688 13.003906 7.511719 C 13.125 7.785156 13.128906 8.0625 13.015625 8.300781 C 12.972656 8.386719 12.90625 8.492188 12.792969 8.585938 C 12.933594 8.75 13.019531 8.9375 13.042969 9.128906 C 13.074219 9.40625 12.96875 9.671875 12.75 9.882812 C 12.589844 10.0625 12.359375 10.167969 12.117188 10.167969 C 11.976562 10.167969 11.835938 10.132812 11.707031 10.066406 C 11.542969 10.320312 11.300781 10.46875 11.015625 10.46875 C 10.816406 10.46875 10.609375 10.394531 10.398438 10.253906 C 10.15625 10.09375 10.050781 9.878906 10.023438 9.664062 C 8.808594 10.984375 8.074219 12.710938 8.074219 14.601562 C 8.074219 18.753906 11.625 22.121094 16 22.121094 C 20.375 22.121094 23.925781 18.753906 23.925781 14.601562 C 23.925781 11.53125 21.988281 8.894531 19.210938 7.722656 Z M 13.488281 6.953125 C 13.527344 6.9375 14.441406 6.582031 16.039062 6.582031 C 17.640625 6.582031 18.484375 6.941406 18.519531 6.957031 C 18.675781 7.027344 18.746094 7.207031 18.679688 7.359375 C 18.628906 7.472656 18.515625 7.542969 18.398438 7.542969 C 18.359375 7.542969 18.316406 7.535156 18.277344 7.515625 C 18.269531 7.515625 17.503906 7.191406 16.039062 7.191406 C 14.578125 7.191406 13.722656 7.519531 13.714844 7.519531 C 13.558594 7.582031 13.378906 7.503906 13.316406 7.351562 C 13.257812 7.191406 13.332031 7.015625 13.488281 6.953125 Z M 15.675781 21.386719 C 12.441406 21.386719 11.09375 18.875 11.09375 17.59375 C 11.09375 16.316406 11.464844 14.828125 12.117188 14.082031 C 12.769531 13.339844 14.417969 11.664062 15.117188 10.316406 C 15.496094 9.578125 15.726562 8.914062 15.859375 8.457031 C 15.90625 8.296875 16.109375 8.289062 16.167969 8.449219 C 16.632812 9.75 17.746094 11.984375 18.394531 12.59375 C 19.164062 13.316406 20.90625 14.546875 20.90625 17.222656 C 20.90625 19.898438 18.90625 21.386719 15.675781 21.386719 Z M 15.675781 21.386719 "/>
<path style=" stroke:none;fill-rule:nonzero;fill:rgb(98.823529%,63.921571%,68.627453%);fill-opacity:1;" d="M 12.757812 7.617188 C 12.5625 7.164062 11.953125 7.089844 11.621094 7.445312 C 11.554688 6.921875 11.054688 6.703125 10.710938 6.808594 C 10.003906 7.03125 10.339844 7.84375 10.339844 7.84375 C 9.957031 7.824219 9.585938 7.925781 9.546875 8.421875 C 9.433594 9.402344 10.421875 9.097656 10.421875 9.097656 C 10.421875 9.097656 10.035156 9.6875 10.546875 10.03125 C 11.054688 10.371094 11.453125 10.167969 11.597656 9.648438 C 11.929688 10.003906 12.34375 9.945312 12.558594 9.695312 C 12.933594 9.34375 12.816406 8.835938 12.308594 8.539062 C 12.792969 8.398438 12.925781 8.007812 12.757812 7.617188 Z M 11.425781 9.050781 C 11.136719 9.140625 10.832031 8.976562 10.742188 8.6875 C 10.652344 8.398438 10.8125 8.09375 11.101562 8.003906 C 11.390625 7.914062 11.699219 8.074219 11.789062 8.363281 C 11.878906 8.652344 11.714844 8.960938 11.425781 9.050781 Z M 11.425781 9.050781 "/>
<path style=" stroke:none;fill-rule:nonzero;fill:rgb(100%,100%,100%);fill-opacity:1;" d="M 11.8125 8.527344 C 11.8125 8.222656 11.566406 7.976562 11.265625 7.976562 C 10.960938 7.976562 10.71875 8.222656 10.71875 8.527344 C 10.71875 8.828125 10.960938 9.074219 11.265625 9.074219 C 11.566406 9.074219 11.8125 8.828125 11.8125 8.527344 Z M 11.8125 8.527344 "/>
<path style=" stroke:none;fill-rule:nonzero;fill:rgb(30.19608%,65.882355%,83.529413%);fill-opacity:1;" d="M 6.390625 25.414062 C 6.824219 25.414062 7.089844 24.953125 7.089844 24.460938 C 7.089844 23.9375 6.726562 23.511719 6.28125 23.511719 L 4.921875 23.511719 C 4.871094 23.511719 4.828125 23.5625 4.828125 23.621094 L 4.828125 27.4375 C 4.828125 27.5 4.871094 27.546875 4.921875 27.546875 L 6.390625 27.546875 C 6.871094 27.546875 7.257812 27.070312 7.257812 26.480469 C 7.257812 25.890625 6.929688 25.414062 6.390625 25.414062 Z M 5.417969 24.207031 C 5.417969 24.144531 5.460938 24.097656 5.511719 24.097656 L 6.050781 24.097656 C 6.296875 24.097656 6.496094 24.332031 6.496094 24.621094 C 6.496094 24.910156 6.296875 25.148438 6.050781 25.148438 L 5.511719 25.148438 C 5.460938 25.148438 5.417969 25.097656 5.417969 25.035156 Z M 6.636719 26.386719 C 6.636719 26.714844 6.414062 26.980469 6.136719 26.980469 L 5.511719 26.980469 C 5.460938 26.980469 5.417969 26.933594 5.417969 26.871094 L 5.417969 25.90625 C 5.417969 25.84375 5.460938 25.792969 5.511719 25.792969 L 6.136719 25.792969 C 6.414062 25.792969 6.636719 26.058594 6.636719 26.386719 Z M 6.636719 26.386719 "/>
<path style=" stroke:none;fill-rule:nonzero;fill:rgb(30.19608%,65.882355%,83.529413%);fill-opacity:1;" d="M 9.464844 25.414062 C 9.902344 25.414062 10.164062 24.953125 10.164062 24.460938 C 10.164062 23.9375 9.804688 23.511719 9.359375 23.511719 L 8 23.511719 C 7.945312 23.511719 7.90625 23.5625 7.90625 23.621094 L 7.90625 27.4375 C 7.90625 27.5 7.945312 27.546875 8 27.546875 L 9.464844 27.546875 C 9.945312 27.546875 10.332031 27.070312 10.332031 26.480469 C 10.332031 25.890625 10.003906 25.414062 9.464844 25.414062 Z M 8.492188 24.207031 C 8.492188 24.144531 8.535156 24.097656 8.585938 24.097656 L 9.125 24.097656 C 9.371094 24.097656 9.570312 24.332031 9.570312 24.621094 C 9.570312 24.910156 9.371094 25.148438 9.125 25.148438 L 8.585938 25.148438 C 8.535156 25.148438 8.492188 25.097656 8.492188 25.035156 Z M 9.714844 26.386719 C 9.714844 26.714844 9.488281 26.980469 9.210938 26.980469 L 8.585938 26.980469 C 8.535156 26.980469 8.492188 26.933594 8.492188 26.871094 L 8.492188 25.90625 C 8.492188 25.84375 8.535156 25.792969 8.585938 25.792969 L 9.210938 25.792969 C 9.488281 25.792969 9.714844 26.058594 9.714844 26.386719 Z M 9.714844 26.386719 "/>
<path style=" stroke:none;fill-rule:nonzero;fill:rgb(30.19608%,65.882355%,83.529413%);fill-opacity:1;" d="M 15.140625 23.441406 C 15.105469 23.441406 15.074219 23.464844 15.058594 23.5 L 14.050781 25.71875 C 14.039062 25.742188 14.015625 25.742188 14.003906 25.71875 L 12.992188 23.5 C 12.976562 23.464844 12.945312 23.441406 12.914062 23.441406 L 12.449219 23.441406 C 12.398438 23.441406 12.359375 23.492188 12.359375 23.550781 L 12.359375 27.441406 C 12.359375 27.5 12.398438 27.546875 12.449219 27.546875 L 12.800781 27.546875 C 12.851562 27.546875 12.894531 27.5 12.894531 27.441406 L 12.894531 24.742188 C 12.894531 24.71875 12.921875 24.707031 12.933594 24.730469 L 13.707031 26.390625 C 13.773438 26.527344 13.894531 26.613281 14.027344 26.613281 C 14.160156 26.613281 14.28125 26.527344 14.347656 26.390625 L 15.121094 24.730469 C 15.128906 24.707031 15.160156 24.71875 15.160156 24.742188 L 15.160156 27.441406 C 15.160156 27.5 15.203125 27.546875 15.253906 27.546875 L 15.605469 27.546875 C 15.652344 27.546875 15.695312 27.5 15.695312 27.441406 L 15.695312 23.550781 C 15.695312 23.492188 15.652344 23.441406 15.605469 23.441406 Z M 15.140625 23.441406 "/>
<path style=" stroke:none;fill-rule:nonzero;fill:rgb(30.19608%,65.882355%,83.529413%);fill-opacity:1;" d="M 18.886719 27.546875 L 19.308594 27.546875 C 19.371094 27.546875 19.414062 27.476562 19.394531 27.40625 L 18.222656 23.535156 C 18.210938 23.496094 18.175781 23.464844 18.136719 23.464844 L 17.644531 23.464844 C 17.605469 23.464844 17.570312 23.496094 17.558594 23.535156 L 16.386719 27.40625 C 16.367188 27.476562 16.410156 27.546875 16.472656 27.546875 L 16.894531 27.546875 C 16.933594 27.546875 16.964844 27.519531 16.980469 27.476562 L 17.226562 26.648438 C 17.230469 26.636719 17.238281 26.628906 17.25 26.628906 L 18.53125 26.628906 C 18.542969 26.628906 18.550781 26.636719 18.554688 26.648438 L 18.800781 27.476562 C 18.816406 27.519531 18.847656 27.546875 18.886719 27.546875 Z M 17.429688 25.957031 L 17.863281 24.492188 C 17.875 24.464844 17.90625 24.464844 17.914062 24.492188 L 18.351562 25.957031 C 18.355469 25.976562 18.34375 26 18.324219 26 L 17.457031 26 C 17.4375 26 17.421875 25.976562 17.429688 25.957031 Z M 17.429688 25.957031 "/>
<path style=" stroke:none;fill-rule:nonzero;fill:rgb(30.19608%,65.882355%,83.529413%);fill-opacity:1;" d="M 20.140625 23.464844 L 20.507812 23.464844 C 20.570312 23.464844 20.621094 23.515625 20.621094 23.578125 L 20.621094 27.4375 C 20.621094 27.496094 20.570312 27.546875 20.507812 27.546875 L 20.140625 27.546875 C 20.078125 27.546875 20.027344 27.496094 20.027344 27.4375 L 20.027344 23.578125 C 20.027344 23.515625 20.078125 23.464844 20.140625 23.464844 Z M 20.140625 23.464844 "/>
<path style=" stroke:none;fill-rule:nonzero;fill:rgb(30.19608%,65.882355%,83.529413%);fill-opacity:1;" d="M 22.65625 23.464844 L 21.625 23.464844 C 21.558594 23.464844 21.503906 23.53125 21.503906 23.605469 L 21.503906 27.40625 C 21.503906 27.484375 21.558594 27.546875 21.625 27.546875 L 22.65625 27.546875 C 23.613281 27.546875 24.390625 26.632812 24.390625 25.507812 C 24.390625 24.378906 23.613281 23.464844 22.65625 23.464844 Z M 23.816406 25.554688 C 23.816406 26.214844 23.335938 26.972656 22.800781 26.972656 L 22.242188 26.972656 C 22.15625 26.972656 22.082031 26.890625 22.082031 26.785156 L 22.082031 24.285156 C 22.082031 24.179688 22.15625 24.097656 22.242188 24.097656 L 22.800781 24.097656 C 23.363281 24.097656 23.808594 24.855469 23.808594 25.515625 Z M 23.816406 25.554688 "/>
<path style=" stroke:none;fill-rule:nonzero;fill:rgb(29.803923%,65.882355%,83.137256%);fill-opacity:1;" d="M 26.507812 25.269531 C 26.214844 25.109375 25.425781 24.914062 25.632812 24.355469 C 25.761719 24 26.1875 24.042969 26.453125 24.132812 C 26.683594 24.210938 26.828125 24.40625 26.96875 24.03125 C 27.027344 23.867188 27.0625 23.710938 26.910156 23.613281 C 26.648438 23.4375 26.148438 23.375 25.855469 23.417969 C 24.863281 23.5625 24.652344 25.0625 25.558594 25.570312 C 25.917969 25.773438 26.710938 25.902344 26.5 26.582031 C 26.398438 26.90625 26.042969 26.921875 25.796875 26.875 C 25.585938 26.835938 25.324219 26.554688 25.125 26.617188 C 25.023438 26.644531 24.898438 26.972656 24.917969 27.097656 C 24.941406 27.246094 25.40625 27.449219 25.53125 27.484375 C 26.15625 27.65625 26.925781 27.511719 27.125 26.683594 C 27.285156 26 27.015625 25.542969 26.507812 25.269531 Z M 26.507812 25.269531 "/>
</g>
</svg>
