<svg xmlns="http://www.w3.org/2000/svg" version="1.1" xmlns:xlink="http://www.w3.org/1999/xlink" xmlns:svgjs="http://svgjs.dev/svgjs" width="1440" height="560" preserveAspectRatio="none" viewBox="0 0 1440 560"><g mask="url(&quot;#SvgjsMask1068&quot;)" fill="none"><rect width="1440" height="560" x="0" y="0" fill="rgba(196, 229, 249, 1)"></rect><path d="M 0,163 C 57.6,137 172.8,21.2 288,33 C 403.2,44.8 460.8,220.6 576,222 C 691.2,223.4 748.8,54 864,40 C 979.2,26 1036.8,151.6 1152,152 C 1267.2,152.4 1382.4,64 1440,42L1440 560L0 560z" fill="rgba(76, 168, 212, 1)"></path><path d="M 0,522 C 15.2,475 45.6,284.4 76,287 C 106.4,289.6 121.6,523.2 152,535 C 182.4,546.8 197.6,361.2 228,346 C 258.4,330.8 273.6,469.4 304,459 C 334.4,448.6 349.6,282 380,294 C 410.4,306 425.6,494.8 456,519 C 486.4,543.2 501.6,420.2 532,415 C 562.4,409.8 577.6,496.8 608,493 C 638.4,489.2 653.6,382.8 684,396 C 714.4,409.2 729.6,559 760,559 C 790.4,559 805.6,420.2 836,396 C 866.4,371.8 881.6,457.4 912,438 C 942.4,418.6 957.6,284.2 988,299 C 1018.4,313.8 1033.6,515.6 1064,512 C 1094.4,508.4 1109.6,296.4 1140,281 C 1170.4,265.6 1185.6,414.8 1216,435 C 1246.4,455.2 1261.6,382.2 1292,382 C 1322.4,381.8 1338.4,434.4 1368,434 C 1397.6,433.6 1425.6,390.8 1440,380L1440 560L0 560z" fill="rgba(76, 168, 212, 1)"></path></g><defs><mask id="SvgjsMask1068"><rect width="1440" height="560" fill="#ffffff"></rect></mask></defs></svg>